<mxfile host="app.diagrams.net" agent="Mozilla/5.0 (X11; Linux x86_64; rv:144.0) Gecko/20100101 Firefox/144.0" version="28.2.8">
  <diagram name="Page 1" id="Page-1">
    <mxGraphModel dx="505" dy="603" grid="1" gridSize="10" guides="1" tooltips="1" connect="1" arrows="1" fold="1" page="1" pageScale="1" pageWidth="827" pageHeight="1169" math="1" shadow="0">
      <root>
        <mxCell id="0" />
        <mxCell id="1" parent="0" />
        <mxCell id="dwMT5O7cQP01w2wC77R_-22" value="&lt;div&gt;$$\theta$$&lt;/div&gt;" style="text;html=1;whiteSpace=wrap;align=center;verticalAlign=middle;rounded=0;" parent="1" vertex="1">
          <mxGeometry x="560" y="80" width="20" height="30" as="geometry" />
        </mxCell>
        <mxCell id="_w2NrpymjJ8x9Jz6YZOi-33" value="&lt;div&gt;$$\theta$$&lt;/div&gt;" style="text;html=1;whiteSpace=wrap;align=center;verticalAlign=middle;rounded=0;" parent="1" vertex="1">
          <mxGeometry x="580" y="312" width="20" height="30" as="geometry" />
        </mxCell>
        <mxCell id="dwMT5O7cQP01w2wC77R_-23" value="&lt;font style=&quot;font-size: 11px;&quot;&gt;I&lt;sub&gt;R&lt;/sub&gt;&lt;/font&gt;" style="text;html=1;whiteSpace=wrap;align=left;verticalAlign=middle;rounded=0;spacingLeft=2;convertToSvg=1;" parent="1" vertex="1">
          <mxGeometry x="670" y="50" width="30" height="30" as="geometry" />
        </mxCell>
        <mxCell id="dwMT5O7cQP01w2wC77R_-24" value="I&lt;sub&gt;tot&lt;/sub&gt;" style="text;html=1;whiteSpace=wrap;align=left;verticalAlign=middle;rounded=0;spacingLeft=2;convertToSvg=1;" parent="1" vertex="1">
          <mxGeometry x="680" y="160" width="30" height="30" as="geometry" />
        </mxCell>
        <mxCell id="dwMT5O7cQP01w2wC77R_-25" value="&lt;div align=&quot;center&quot;&gt;I&lt;sub&gt;L&lt;/sub&gt;&lt;/div&gt;" style="text;html=1;whiteSpace=wrap;align=center;verticalAlign=middle;rounded=0;spacingLeft=2;convertToSvg=1;" parent="1" vertex="1">
          <mxGeometry x="490" y="170" width="30" height="30" as="geometry" />
        </mxCell>
        <mxCell id="_w2NrpymjJ8x9Jz6YZOi-34" value="&lt;font style=&quot;font-size: 11px;&quot;&gt;I&lt;sub&gt;R&lt;/sub&gt;&lt;/font&gt;" style="text;html=1;whiteSpace=wrap;align=left;verticalAlign=middle;rounded=0;spacingLeft=2;convertToSvg=1;" parent="1" vertex="1">
          <mxGeometry x="670" y="290" width="30" height="30" as="geometry" />
        </mxCell>
        <mxCell id="_w2NrpymjJ8x9Jz6YZOi-35" value="I&lt;sub&gt;tot&lt;/sub&gt;" style="text;html=1;whiteSpace=wrap;align=left;verticalAlign=middle;rounded=0;spacingLeft=2;convertToSvg=1;" parent="1" vertex="1">
          <mxGeometry x="670" y="350" width="30" height="30" as="geometry" />
        </mxCell>
        <mxCell id="_w2NrpymjJ8x9Jz6YZOi-36" value="&lt;div align=&quot;center&quot;&gt;I&lt;sub&gt;L&lt;/sub&gt;&lt;/div&gt;" style="text;html=1;whiteSpace=wrap;align=center;verticalAlign=middle;rounded=0;spacingLeft=2;convertToSvg=1;fontColor=light-dark(#FF3333,#FF3333);" parent="1" vertex="1">
          <mxGeometry x="490" y="410" width="30" height="30" as="geometry" />
        </mxCell>
        <mxCell id="_w2NrpymjJ8x9Jz6YZOi-43" value="&lt;div align=&quot;center&quot;&gt;I&lt;sub&gt;C&lt;/sub&gt;&lt;/div&gt;" style="text;html=1;whiteSpace=wrap;align=center;verticalAlign=middle;rounded=0;spacingLeft=2;convertToSvg=1;fontColor=light-dark(#33FF99,#33FF99);" parent="1" vertex="1">
          <mxGeometry x="490" y="235" width="30" height="30" as="geometry" />
        </mxCell>
        <mxCell id="_w2NrpymjJ8x9Jz6YZOi-44" value="&lt;div align=&quot;center&quot;&gt;I&lt;sub&gt;CL&lt;/sub&gt;&lt;/div&gt;" style="text;html=1;whiteSpace=wrap;align=center;verticalAlign=middle;rounded=0;spacingLeft=2;convertToSvg=1;" parent="1" vertex="1">
          <mxGeometry x="490" y="330" width="30" height="30" as="geometry" />
        </mxCell>
        <mxCell id="a2qW_MYBUop-qcKPNAVE-28" value="&lt;div align=&quot;right&quot;&gt;V&lt;sub&gt;S&lt;/sub&gt;&lt;/div&gt;" style="text;html=1;whiteSpace=wrap;align=right;verticalAlign=middle;rounded=0;fontFamily=Helvetica;fontSize=11;labelBackgroundColor=default;convertToSvg=1;" parent="1" vertex="1">
          <mxGeometry x="20" y="225" width="27" height="30" as="geometry" />
        </mxCell>
        <UserObject label="" tags="Ã‰lectrique Lien" id="22">
          <mxCell parent="1" vertex="1" visible="0">
            <mxGeometry as="geometry" />
          </mxCell>
        </UserObject>
        <mxCell id="6UKD6J0Y2M0ALBOnThgI-23" value="" style="edgeStyle=orthogonalEdgeStyle;rounded=0;orthogonalLoop=1;jettySize=auto;html=1;endArrow=none;endFill=0;" parent="1" source="a2qW_MYBUop-qcKPNAVE-22" target="6UKD6J0Y2M0ALBOnThgI-22" edge="1">
          <mxGeometry relative="1" as="geometry">
            <Array as="points">
              <mxPoint x="80" y="160" />
            </Array>
          </mxGeometry>
        </mxCell>
        <mxCell id="6UKD6J0Y2M0ALBOnThgI-25" value="" style="edgeStyle=orthogonalEdgeStyle;shape=connector;rounded=0;orthogonalLoop=1;jettySize=auto;html=1;align=center;verticalAlign=middle;fontFamily=Helvetica;fontSize=11;fontColor=default;labelBackgroundColor=default;endArrow=none;endFill=0;" parent="1" source="a2qW_MYBUop-qcKPNAVE-22" target="6UKD6J0Y2M0ALBOnThgI-24" edge="1">
          <mxGeometry relative="1" as="geometry">
            <Array as="points">
              <mxPoint x="80" y="320" />
            </Array>
          </mxGeometry>
        </mxCell>
        <mxCell id="a2qW_MYBUop-qcKPNAVE-22" value="" style="pointerEvents=1;verticalLabelPosition=bottom;shadow=0;dashed=0;align=center;html=1;verticalAlign=top;shape=mxgraph.electrical.signal_sources.source;aspect=fixed;points=[[0.5,0,0],[1,0.5,0],[0.5,1,0],[0,0.5,0]];elSignalType=ac;" parent="1" vertex="1">
          <mxGeometry x="50" y="210" width="60" height="60" as="geometry" />
        </mxCell>
        <mxCell id="6UKD6J0Y2M0ALBOnThgI-26" value="" style="edgeStyle=orthogonalEdgeStyle;shape=connector;rounded=0;orthogonalLoop=1;jettySize=auto;html=1;align=center;verticalAlign=middle;fontFamily=Helvetica;fontSize=11;fontColor=default;labelBackgroundColor=default;endArrow=none;endFill=0;" parent="1" source="a2qW_MYBUop-qcKPNAVE-23" target="6UKD6J0Y2M0ALBOnThgI-22" edge="1">
          <mxGeometry relative="1" as="geometry" />
        </mxCell>
        <mxCell id="6UKD6J0Y2M0ALBOnThgI-27" value="" style="edgeStyle=orthogonalEdgeStyle;shape=connector;rounded=0;orthogonalLoop=1;jettySize=auto;html=1;align=center;verticalAlign=middle;fontFamily=Helvetica;fontSize=11;fontColor=default;labelBackgroundColor=default;endArrow=none;endFill=0;" parent="1" source="a2qW_MYBUop-qcKPNAVE-23" target="6UKD6J0Y2M0ALBOnThgI-22" edge="1">
          <mxGeometry relative="1" as="geometry" />
        </mxCell>
        <mxCell id="6UKD6J0Y2M0ALBOnThgI-28" style="edgeStyle=orthogonalEdgeStyle;shape=connector;rounded=0;orthogonalLoop=1;jettySize=auto;html=1;exitX=1;exitY=0.5;exitDx=0;exitDy=0;exitPerimeter=0;align=center;verticalAlign=middle;fontFamily=Helvetica;fontSize=11;fontColor=default;labelBackgroundColor=default;endArrow=none;endFill=0;" parent="1" source="a2qW_MYBUop-qcKPNAVE-23" target="6UKD6J0Y2M0ALBOnThgI-24" edge="1">
          <mxGeometry relative="1" as="geometry" />
        </mxCell>
        <mxCell id="a2qW_MYBUop-qcKPNAVE-23" value="R" style="pointerEvents=1;verticalLabelPosition=bottom;shadow=0;dashed=0;align=center;html=1;verticalAlign=middle;shape=mxgraph.electrical.resistors.resistor_2;convertToSvg=1;rotation=90;horizontal=0;" parent="1" vertex="1">
          <mxGeometry x="140" y="230" width="100" height="20" as="geometry" />
        </mxCell>
        <mxCell id="_w2NrpymjJ8x9Jz6YZOi-26" value="" style="edgeStyle=orthogonalEdgeStyle;rounded=0;orthogonalLoop=1;jettySize=auto;html=1;endArrow=none;endFill=0;exitX=0;exitY=1;exitDx=0;exitDy=0;exitPerimeter=0;" parent="1" source="a2qW_MYBUop-qcKPNAVE-24" target="_w2NrpymjJ8x9Jz6YZOi-25" edge="1">
          <mxGeometry relative="1" as="geometry">
            <Array as="points">
              <mxPoint x="270" y="160" />
              <mxPoint x="270" y="160" />
            </Array>
          </mxGeometry>
        </mxCell>
        <mxCell id="_w2NrpymjJ8x9Jz6YZOi-28" style="edgeStyle=orthogonalEdgeStyle;shape=connector;rounded=0;orthogonalLoop=1;jettySize=auto;html=1;exitX=1;exitY=1;exitDx=0;exitDy=0;exitPerimeter=0;strokeColor=default;align=center;verticalAlign=middle;fontFamily=Helvetica;fontSize=11;fontColor=default;labelBackgroundColor=default;endArrow=none;endFill=0;" parent="1" source="a2qW_MYBUop-qcKPNAVE-24" target="_w2NrpymjJ8x9Jz6YZOi-23" edge="1">
          <mxGeometry relative="1" as="geometry" />
        </mxCell>
        <mxCell id="a2qW_MYBUop-qcKPNAVE-24" value="L" style="pointerEvents=1;verticalLabelPosition=bottom;shadow=0;dashed=0;align=left;html=1;verticalAlign=middle;shape=mxgraph.electrical.inductors.inductor_3;rotation=90;horizontal=0;convertToSvg=1;" parent="1" vertex="1">
          <mxGeometry x="224" y="236" width="100" height="8" as="geometry" />
        </mxCell>
        <mxCell id="_w2NrpymjJ8x9Jz6YZOi-29" value="" style="edgeStyle=orthogonalEdgeStyle;shape=connector;rounded=0;orthogonalLoop=1;jettySize=auto;html=1;strokeColor=default;align=center;verticalAlign=middle;fontFamily=Helvetica;fontSize=11;fontColor=default;labelBackgroundColor=default;endArrow=none;endFill=0;" parent="1" source="6UKD6J0Y2M0ALBOnThgI-22" target="_w2NrpymjJ8x9Jz6YZOi-25" edge="1">
          <mxGeometry relative="1" as="geometry" />
        </mxCell>
        <mxCell id="6UKD6J0Y2M0ALBOnThgI-22" value="" style="shape=waypoint;sketch=0;size=6;pointerEvents=1;points=[];resizable=0;rotatable=0;perimeter=centerPerimeter;snapToPoint=1;verticalAlign=top;shadow=0;dashed=0;" parent="1" vertex="1">
          <mxGeometry x="180" y="150" width="20" height="20" as="geometry" />
        </mxCell>
        <mxCell id="_w2NrpymjJ8x9Jz6YZOi-30" value="" style="edgeStyle=orthogonalEdgeStyle;shape=connector;rounded=0;orthogonalLoop=1;jettySize=auto;html=1;strokeColor=default;align=center;verticalAlign=middle;fontFamily=Helvetica;fontSize=11;fontColor=default;labelBackgroundColor=default;endArrow=none;endFill=0;" parent="1" source="6UKD6J0Y2M0ALBOnThgI-24" target="_w2NrpymjJ8x9Jz6YZOi-23" edge="1">
          <mxGeometry relative="1" as="geometry" />
        </mxCell>
        <mxCell id="6UKD6J0Y2M0ALBOnThgI-24" value="" style="shape=waypoint;sketch=0;size=6;pointerEvents=1;points=[];resizable=0;rotatable=0;perimeter=centerPerimeter;snapToPoint=1;verticalAlign=top;shadow=0;dashed=0;" parent="1" vertex="1">
          <mxGeometry x="180" y="310" width="20" height="20" as="geometry" />
        </mxCell>
        <mxCell id="dwMT5O7cQP01w2wC77R_-26" value="" style="edgeStyle=none;orthogonalLoop=1;jettySize=auto;html=1;rounded=0;" parent="1" edge="1">
          <mxGeometry width="80" relative="1" as="geometry">
            <mxPoint x="520" y="80" as="sourcePoint" />
            <mxPoint x="700" y="80" as="targetPoint" />
            <Array as="points" />
          </mxGeometry>
        </mxCell>
        <mxCell id="dwMT5O7cQP01w2wC77R_-27" value="" style="edgeStyle=none;orthogonalLoop=1;jettySize=auto;html=1;rounded=0;" parent="1" edge="1">
          <mxGeometry width="80" relative="1" as="geometry">
            <mxPoint x="520" y="80" as="sourcePoint" />
            <mxPoint x="520" y="200" as="targetPoint" />
            <Array as="points" />
          </mxGeometry>
        </mxCell>
        <mxCell id="dwMT5O7cQP01w2wC77R_-28" value="" style="edgeStyle=none;orthogonalLoop=1;jettySize=auto;html=1;rounded=0;" parent="1" edge="1">
          <mxGeometry width="80" relative="1" as="geometry">
            <mxPoint x="520" y="80" as="sourcePoint" />
            <mxPoint x="700" y="200" as="targetPoint" />
            <Array as="points" />
          </mxGeometry>
        </mxCell>
        <mxCell id="dwMT5O7cQP01w2wC77R_-29" value="" style="verticalLabelPosition=bottom;verticalAlign=top;html=1;shape=mxgraph.basic.arc;startAngle=0.25;endAngle=0.3421625323872021;" parent="1" vertex="1">
          <mxGeometry x="480" y="40" width="80" height="80" as="geometry" />
        </mxCell>
        <mxCell id="_w2NrpymjJ8x9Jz6YZOi-31" style="edgeStyle=orthogonalEdgeStyle;shape=connector;rounded=0;orthogonalLoop=1;jettySize=auto;html=1;exitX=1;exitY=0.5;exitDx=0;exitDy=0;exitPerimeter=0;strokeColor=default;align=center;verticalAlign=middle;fontFamily=Helvetica;fontSize=11;fontColor=default;labelBackgroundColor=default;endArrow=none;endFill=0;dashed=1;dashPattern=8 8;" parent="1" source="_w2NrpymjJ8x9Jz6YZOi-22" target="_w2NrpymjJ8x9Jz6YZOi-23" edge="1">
          <mxGeometry relative="1" as="geometry">
            <Array as="points">
              <mxPoint x="370" y="320" />
            </Array>
          </mxGeometry>
        </mxCell>
        <mxCell id="_w2NrpymjJ8x9Jz6YZOi-32" style="edgeStyle=orthogonalEdgeStyle;shape=connector;rounded=0;orthogonalLoop=1;jettySize=auto;html=1;exitX=0;exitY=0.5;exitDx=0;exitDy=0;exitPerimeter=0;strokeColor=default;align=center;verticalAlign=middle;fontFamily=Helvetica;fontSize=11;fontColor=default;labelBackgroundColor=default;endArrow=none;endFill=0;dashed=1;dashPattern=8 8;" parent="1" source="_w2NrpymjJ8x9Jz6YZOi-22" target="_w2NrpymjJ8x9Jz6YZOi-25" edge="1">
          <mxGeometry relative="1" as="geometry">
            <Array as="points">
              <mxPoint x="370" y="160" />
            </Array>
          </mxGeometry>
        </mxCell>
        <mxCell id="_w2NrpymjJ8x9Jz6YZOi-22" value="C" style="pointerEvents=1;verticalLabelPosition=bottom;shadow=0;dashed=0;align=left;html=1;verticalAlign=middle;shape=mxgraph.electrical.capacitors.capacitor_1;rotation=90;horizontal=0;spacingLeft=2;convertToSvg=1;" parent="1" vertex="1">
          <mxGeometry x="320" y="210" width="100" height="60" as="geometry" />
        </mxCell>
        <mxCell id="_w2NrpymjJ8x9Jz6YZOi-23" value="" style="shape=waypoint;sketch=0;size=6;pointerEvents=1;points=[];fillColor=default;resizable=0;rotatable=0;perimeter=centerPerimeter;snapToPoint=1;align=left;shadow=0;dashed=0;horizontal=0;" parent="1" vertex="1">
          <mxGeometry x="260" y="310" width="20" height="20" as="geometry" />
        </mxCell>
        <mxCell id="_w2NrpymjJ8x9Jz6YZOi-25" value="" style="shape=waypoint;sketch=0;size=6;pointerEvents=1;points=[];fillColor=default;resizable=0;rotatable=0;perimeter=centerPerimeter;snapToPoint=1;align=left;shadow=0;dashed=0;horizontal=0;" parent="1" vertex="1">
          <mxGeometry x="260" y="150" width="20" height="20" as="geometry" />
        </mxCell>
        <mxCell id="_w2NrpymjJ8x9Jz6YZOi-37" value="" style="edgeStyle=none;orthogonalLoop=1;jettySize=auto;html=1;rounded=0;" parent="1" edge="1">
          <mxGeometry width="80" relative="1" as="geometry">
            <mxPoint x="520" y="320" as="sourcePoint" />
            <mxPoint x="700" y="320" as="targetPoint" />
            <Array as="points" />
          </mxGeometry>
        </mxCell>
        <mxCell id="_w2NrpymjJ8x9Jz6YZOi-38" value="" style="edgeStyle=none;orthogonalLoop=1;jettySize=auto;html=1;rounded=0;strokeColor=light-dark(#FF3333,#FF3333);" parent="1" edge="1">
          <mxGeometry width="80" relative="1" as="geometry">
            <mxPoint x="520" y="320" as="sourcePoint" />
            <mxPoint x="520" y="440" as="targetPoint" />
            <Array as="points" />
          </mxGeometry>
        </mxCell>
        <mxCell id="_w2NrpymjJ8x9Jz6YZOi-39" value="" style="edgeStyle=none;orthogonalLoop=1;jettySize=auto;html=1;rounded=0;" parent="1" edge="1">
          <mxGeometry width="80" relative="1" as="geometry">
            <mxPoint x="520" y="320" as="sourcePoint" />
            <mxPoint x="700" y="360" as="targetPoint" />
            <Array as="points" />
          </mxGeometry>
        </mxCell>
        <mxCell id="_w2NrpymjJ8x9Jz6YZOi-40" value="" style="verticalLabelPosition=bottom;verticalAlign=top;html=1;shape=mxgraph.basic.arc;startAngle=0.25;endAngle=0.28498147210028646;" parent="1" vertex="1">
          <mxGeometry x="480" y="280" width="80" height="80" as="geometry" />
        </mxCell>
        <mxCell id="_w2NrpymjJ8x9Jz6YZOi-41" value="" style="edgeStyle=none;orthogonalLoop=1;jettySize=auto;html=1;rounded=0;strokeColor=default;align=center;verticalAlign=middle;fontFamily=Helvetica;fontSize=11;fontColor=default;labelBackgroundColor=default;endArrow=classic;endFill=1;" parent="1" edge="1">
          <mxGeometry width="80" relative="1" as="geometry">
            <mxPoint x="520" y="320" as="sourcePoint" />
            <mxPoint x="520" y="360" as="targetPoint" />
            <Array as="points" />
          </mxGeometry>
        </mxCell>
        <mxCell id="_w2NrpymjJ8x9Jz6YZOi-42" value="" style="edgeStyle=none;orthogonalLoop=1;jettySize=auto;html=1;rounded=0;strokeColor=light-dark(#33FF99,#33FF99);align=center;verticalAlign=middle;fontFamily=Helvetica;fontSize=11;fontColor=default;labelBackgroundColor=default;endArrow=classic;endFill=1;" parent="1" edge="1">
          <mxGeometry width="80" relative="1" as="geometry">
            <mxPoint x="519.81" y="320" as="sourcePoint" />
            <mxPoint x="519.81" y="240" as="targetPoint" />
            <Array as="points" />
          </mxGeometry>
        </mxCell>
      </root>
    </mxGraphModel>
  </diagram>
</mxfile>
